<?xml version="1.0" encoding="utf-8"?>
<!-- Generator: Adobe Illustrator 21.1.0, SVG Export Plug-In . SVG Version: 6.00 Build 0)  -->
<svg version="1.1" id="Laag_1" xmlns="http://www.w3.org/2000/svg" xmlns:xlink="http://www.w3.org/1999/xlink" x="0px" y="0px"
	 viewBox="0 0 186.6 150" style="enable-background:new 0 0 186.6 150;" xml:space="preserve">
<style type="text/css">
	.st0{fill:#FF005B;}
</style>
<g>
	<path class="st0" d="M115.8,19.4V9.7c0-5.4-4.4-9.7-9.7-9.7H80.6c-5.4,0-9.7,4.4-9.7,9.7v9.7C34.6,24.2,22.1,39.9,19,44.7H0v19.7
		c0,2,1,4.5,2.4,5.9L18,85.9l0,37.3C18,138,30,150,44.7,150h97.2c14.7,0,26.7-12,26.7-26.7V85.9l15.6-15.6c1.4-1.4,2.4-3.9,2.4-5.9
		V44.7h-19C164.6,39.9,152,24.2,115.8,19.4z M162.5,130.4H24.1c-0.8-2.3-1.2-4.7-1.2-7.2l0-73.7h140.9v73.7
		C163.8,125.8,163.3,128.2,162.5,130.4z M75.7,9.7c0-2.7,2.2-4.9,4.9-4.9h25.5c2.7,0,4.9,2.2,4.9,4.9v9.1
		c-5.4-0.5-11.2-0.8-17.6-0.8c-6.4,0-12.2,0.3-17.6,0.8V9.7z M93.3,22.9c44.4,0,62.3,14.9,68.2,21.9H25.1
		C31,37.8,48.9,22.9,93.3,22.9z M5.9,66.9c-0.5-0.5-1-1.7-1-2.4V49.6H18v29.5L5.9,66.9z M141.9,145.1H44.7c-7.6,0-14.3-3.9-18.2-9.8
		h133.6C156.2,141.2,149.5,145.1,141.9,145.1z M181.8,64.5c0,0.7-0.5,1.9-1,2.4l-12.2,12.2V49.6h13.2V64.5z"/>
</g>
</svg>
