<?xml version="1.0" encoding="utf-8"?>
<!-- Generator: Adobe Illustrator 21.1.0, SVG Export Plug-In . SVG Version: 6.00 Build 0)  -->
<svg version="1.1" id="Laag_1" xmlns="http://www.w3.org/2000/svg" xmlns:xlink="http://www.w3.org/1999/xlink" x="0px" y="0px"
	 viewBox="0 0 327.6 59.6" style="enable-background:new 0 0 327.6 59.6;" xml:space="preserve">
<style type="text/css">
	.st0{fill:#FFFFFF;}
</style>
<g>
	<path class="st0" d="M57.9,7.1H59v13.3h-1.1V7.1z"/>
	<path class="st0" d="M66.8,9.9v10.4h-1.1V8.5l-0.9-1.3V7.1h1.4l8.5,11.3V7.1h1.1v13.3h-1.1L66.8,9.9z"/>
	<path class="st0" d="M84.6,8.1h-3.7V7.1h8.5v1.1h-3.7v12.2h-1.1V8.1z"/>
	<path class="st0" d="M94.6,20.3V7.1h6.9v1.1h-5.8v5h5.4v1.1h-5.4v5.1h5.8v1.1H94.6z"/>
	<path class="st0" d="M107.6,7.1h3.6c2.4,0,4.1,1.4,4.1,3.6c0,1.9-1.2,3-2.9,3.4c1.6,0.7,3.1,2.9,3.7,6.2h-1.2
		c-0.7-3.5-2.6-5.8-4.4-5.8h-1.7v5.8h-1.1V7.1z M111.2,8.1h-2.4v5.3h2.4c1.7,0,2.9-0.9,2.9-2.6C114.1,9.1,112.8,8.1,111.2,8.1z"/>
	<path class="st0" d="M121.5,7.1h1.1v13.3h-1.1V7.1z"/>
	<path class="st0" d="M129.3,20.3V7.1h6.9v1.1h-5.8v5h5.4v1.1h-5.4v5.1h5.8v1.1H129.3z"/>
	<path class="st0" d="M151.5,7.1v8.7c0,2.9-1.8,4.8-4.7,4.8c-2.9,0-4.7-1.9-4.7-4.8V7.1h1.1v8.7c0,2.2,1.4,3.6,3.6,3.6
		c2.1,0,3.5-1.5,3.5-3.6V7.1H151.5z"/>
	<path class="st0" d="M158,7.1h3.6c2.4,0,4.1,1.4,4.1,3.6c0,1.9-1.2,3-2.9,3.4c1.6,0.7,3.1,2.9,3.7,6.2h-1.2
		c-0.7-3.5-2.6-5.8-4.4-5.8h-1.7v5.8H158V7.1z M161.6,8.1h-2.4v5.3h2.4c1.7,0,2.9-0.9,2.9-2.6C164.5,9.1,163.3,8.1,161.6,8.1z"/>
	<path class="st0" d="M172,7.1h3.6c2.2,0,3.9,1.3,3.9,3.4c0,1.5-0.8,2.5-2,3c1.4,0.4,2.5,1.6,2.5,3.3c0,2.3-1.8,3.6-4.1,3.6H172V7.1
		z M175.6,8.1h-2.5V13h2.5c1.4,0,2.7-0.7,2.7-2.4C178.3,8.9,177,8.1,175.6,8.1z M175.8,14h-2.7v5.2h2.7c1.6,0,2.9-0.8,2.9-2.6
		C178.7,14.9,177.3,14,175.8,14z"/>
	<path class="st0" d="M191.5,6.9c3.9,0,6.8,2.9,6.8,6.8s-2.9,6.8-6.8,6.8c-3.9,0-6.8-2.9-6.8-6.8S187.6,6.9,191.5,6.9z M191.5,19.4
		c3.2,0,5.7-2.5,5.7-5.7S194.7,8,191.5,8c-3.2,0-5.6,2.5-5.6,5.7S188.3,19.4,191.5,19.4z"/>
	<path class="st0" d="M213.2,7.1v8.7c0,2.9-1.8,4.8-4.7,4.8c-2.9,0-4.7-1.9-4.7-4.8V7.1h1.1v8.7c0,2.2,1.4,3.6,3.6,3.6
		c2.1,0,3.5-1.5,3.5-3.6V7.1H213.2z"/>
	<path class="st0" d="M218.3,7.1h1.3l3.4,11.7l4-10.4l-0.4-1.3h1.2l3.9,11.7l3.4-11.7h1.3l-4,13.3h-1.3l-3.6-10.4l-4,10.4h-1.3
		L218.3,7.1z"/>
</g>
<polygon class="st0" points="16.1,27.9 31.7,27.9 31.7,7.1 42.6,7.1 42.6,59.6 31.7,59.6 31.7,38.4 16.1,38.4 "/>
<path class="st0" d="M7.1,17.7c-2,0-3.8-0.6-5.4-1.6v43.5h10.9V15.9C11.1,17,9.2,17.7,7.1,17.7z"/>
<circle class="st0" cx="7.1" cy="7.1" r="7.1"/>
<g>
	<path class="st0" d="M76.6,48.6H64.1v11h-5.7V32.4h5.7v10.8h12.4V32.4h5.7v27.2h-5.7V48.6z"/>
	<path class="st0" d="M109.2,53.8h-9.7l-2,5.8H91l10.1-27.2h6.4l10.1,27.2h-6.4L109.2,53.8z M101.3,48.3h6l-3-8.5L101.3,48.3z"/>
	<path class="st0" d="M126.4,32.4h5.7v11l7-11h6.6l-7.4,11.2l7.8,16h-6.6l-5.2-11.2l-2.2,3.1v8.1h-5.7V32.4z"/>
	<path class="st0" d="M155.3,59.6V32.4h5.7v21.7h9.8v5.5H155.3z"/>
	<path class="st0" d="M195.5,53.8h-9.7l-2,5.8h-6.4l10.1-27.2h6.4l10.1,27.2h-6.4L195.5,53.8z M187.6,48.3h6l-3-8.5L187.6,48.3z"/>
	<path class="st0" d="M218.6,43.8v15.7h-5.7V35.8l-1.9-3v-0.4h6.7l11.9,17.3V32.4h5.7v27.2h-5.7L218.6,43.8z"/>
	<path class="st0" d="M247.4,32.4h10.1c8.3,0,13.4,5.6,13.4,13.6s-5.2,13.6-13.4,13.6h-10.1V32.4z M253,37.8v16.2h4.4
		c4.9,0,7.6-3.5,7.6-8.1c0-4.6-2.7-8.1-7.6-8.1H253z"/>
	<path class="st0" d="M281.3,59.6V32.4h15.5v5.5H287v5.3h9v5.5h-9v5.5h9.8v5.5H281.3z"/>
	<path class="st0" d="M308,32.4h9.4c5.3,0,9,2.9,9,7.9c0,3.9-2.2,6.1-4.9,6.9c3.4,1.8,5.4,6.6,6.1,12.4h-5.9
		c-1-5.9-3.3-10.1-6.6-10.1h-1.4v10.1H308V32.4z M317.4,37.8h-3.7V44h3.7c1.8,0,3.2-1.1,3.2-3C320.6,38.9,319.2,37.8,317.4,37.8z"/>
</g>
</svg>
