<?xml version="1.0" encoding="utf-8"?>
<!-- Generator: Adobe Illustrator 21.1.0, SVG Export Plug-In . SVG Version: 6.00 Build 0)  -->
<svg version="1.1" id="Laag_1" xmlns="http://www.w3.org/2000/svg" xmlns:xlink="http://www.w3.org/1999/xlink" x="0px" y="0px"
	 viewBox="0 0 267.6 30.9" style="enable-background:new 0 0 267.6 30.9;" xml:space="preserve">
<style type="text/css">
	.st0{fill:#E61F5E;}
	.st1{fill:#FFFFFF;}
</style>
<polygon class="st0" points="8.4,14.5 16.4,14.5 16.4,3.7 22.1,3.7 22.1,30.9 16.4,30.9 16.4,20 8.4,20 "/>
<path class="st0" d="M3.7,9.2c-1,0-2-0.3-2.8-0.8v22.6h5.7V8.3C5.8,8.9,4.8,9.2,3.7,9.2z"/>
<circle class="st0" cx="3.7" cy="3.7" r="3.7"/>
<path class="st1" d="M49.2,25.1h-9.7l-2,5.8h-6.4L41.2,3.7h6.4l10.1,27.2h-6.4L49.2,25.1z M41.4,19.7h6l-3-8.5L41.4,19.7z"/>
<path class="st1" d="M66.5,3.7h5.7v11l7-11h6.6l-7.4,11.2l7.8,16h-6.6l-5.2-11.2l-2.2,3.1v8.1h-5.7V3.7z"/>
<path class="st1" d="M95.4,30.9V3.7h5.7v21.7h9.8v5.5H95.4z"/>
<path class="st1" d="M135.5,25.1h-9.7l-2,5.8h-6.4l10.1-27.2h6.4l10.1,27.2h-6.4L135.5,25.1z M127.7,19.7h6l-3-8.5L127.7,19.7z"/>
<path class="st1" d="M158.6,15.2v15.7H153V7.1l-1.9-3V3.7h6.7l11.9,17.3V3.7h5.7v27.2h-5.7L158.6,15.2z"/>
<path class="st1" d="M187.4,3.7h10.1c8.3,0,13.4,5.6,13.4,13.6s-5.2,13.6-13.4,13.6h-10.1V3.7z M193.1,9.2v16.2h4.4
	c4.9,0,7.6-3.5,7.6-8.1c0-4.6-2.7-8.1-7.6-8.1H193.1z"/>
<path class="st1" d="M221.3,30.9V3.7h15.5v5.5H227v5.3h9V20h-9v5.5h9.8v5.5H221.3z"/>
<path class="st1" d="M248,3.7h9.4c5.3,0,9,2.9,9,7.9c0,3.9-2.2,6.1-4.9,6.9c3.4,1.8,5.4,6.6,6.1,12.4h-5.9c-1-5.9-3.3-10.1-6.6-10.1
	h-1.4v10.1H248V3.7z M257.4,9.2h-3.7v6.1h3.7c1.8,0,3.2-1.1,3.2-3C260.6,10.3,259.2,9.2,257.4,9.2z"/>
</svg>
