<?xml version="1.0" encoding="utf-8"?>
<!-- Generator: Adobe Illustrator 21.1.0, SVG Export Plug-In . SVG Version: 6.00 Build 0)  -->
<svg version="1.1" id="Laag_1" xmlns="http://www.w3.org/2000/svg" xmlns:xlink="http://www.w3.org/1999/xlink" x="0px" y="0px"
	 viewBox="0 0 68.7 104.3" style="enable-background:new 0 0 68.7 104.3;" xml:space="preserve">
<style type="text/css">
	.st0{fill:#FF005B;}
</style>
<g>
	<path class="st0" d="M62.5,25.7c-3.4,0-6.2,2.8-6.2,6.2v12.2c-0.7-0.6-1.6-1.2-2.6-1.7L58,16.8c0.7-4.5-0.4-8.7-3.2-11.9
		C52.1,1.8,48.1,0,43.6,0H25.1c-4.5,0-8.5,1.8-11.2,4.9c-2.7,3.2-3.8,7.4-3.2,11.9L15,42.3c-1,0.5-1.9,1.1-2.6,1.7V31.9
		c0-3.4-2.8-6.2-6.2-6.2S0,28.5,0,31.9h2.7c0-1.9,1.6-3.5,3.5-3.5c1.9,0,3.5,1.6,3.5,3.5v16.6h0.1c0,0.3-0.1,0.5-0.1,0.8v9.4h18.8
		v6.2H33v19.6c-6.3,0.3-12.3,2.7-17,6.9c-3.3,0.3-5.9,3-5.9,6.4c0,3.6,2.9,6.5,6.5,6.5c3.6,0,6.5-2.9,6.5-6.5c0-2.5-1.5-4.7-3.6-5.8
		c3.9-2.9,8.6-4.6,13.5-4.8v4.3c-2.9,0.6-5.1,3.2-5.1,6.3c0,3.6,2.9,6.5,6.5,6.5c3.6,0,6.5-2.9,6.5-6.5c0-3.1-2.2-5.7-5.1-6.3v-4.3
		c4.9,0.3,9.6,1.9,13.5,4.8c-2.1,1.1-3.6,3.2-3.6,5.8c0,3.6,2.9,6.5,6.5,6.5c3.6,0,6.5-2.9,6.5-6.5c0-3.4-2.6-6.1-5.9-6.4
		c-4.7-4.2-10.6-6.6-17-6.9V64.9h4.5v-6.2H59v-9.4c0-0.3,0-0.5-0.1-0.8H59V31.9c0-1.9,1.6-3.5,3.5-3.5c1.9,0,3.5,1.6,3.5,3.5h2.7
		C68.7,28.5,65.9,25.7,62.5,25.7z M16.6,101.6c-2.1,0-3.8-1.7-3.8-3.8c0-2.1,1.7-3.8,3.8-3.8s3.8,1.7,3.8,3.8
		C20.4,99.9,18.7,101.6,16.6,101.6z M55.9,97.8c0,2.1-1.7,3.8-3.8,3.8c-2.1,0-3.8-1.7-3.8-3.8c0-2.1,1.7-3.8,3.8-3.8
		C54.2,94,55.9,95.7,55.9,97.8z M38.1,97.8c0,2.1-1.7,3.8-3.8,3.8c-2.1,0-3.8-1.7-3.8-3.8c0-2.1,1.7-3.8,3.8-3.8
		C36.4,94,38.1,95.7,38.1,97.8z M13.4,16.4c-0.6-3.7,0.3-7.1,2.5-9.7c2.2-2.6,5.5-4,9.2-4h18.5c3.7,0,7,1.4,9.2,4
		c2.2,2.6,3.1,6,2.5,9.7l-4.2,24.9c-2.6-0.9-5.6-1.4-8.9-1.4H26.5c-3.3,0-6.3,0.5-8.9,1.4L13.4,16.4z M37.5,62.2h-6.3v-3.5h6.3V62.2
		z M56.3,56H40.2H28.5H12.4v-6.7c0-3.3,5.7-6.7,14.1-6.7h15.8c8.4,0,14.1,3.5,14.1,6.7V56z"/>
</g>
</svg>
