<?xml version="1.0" encoding="utf-8"?>
<!-- Generator: Adobe Illustrator 21.1.0, SVG Export Plug-In . SVG Version: 6.00 Build 0)  -->
<svg version="1.1" id="Laag_1" xmlns="http://www.w3.org/2000/svg" xmlns:xlink="http://www.w3.org/1999/xlink" x="0px" y="0px"
	 viewBox="0 0 114.1 108.8" style="enable-background:new 0 0 114.1 108.8;" xml:space="preserve">
<style type="text/css">
	.st0{fill:#FF005B;}
</style>
<path class="st0" d="M114.1,37.5L109.9,0H58.5h-2.9H4.2L0,37.6c0,3.9,1.5,7.4,4,9.9v58.3H1.5v2.9H4h19h23.7h63.3h2.6v-2.9h-2.6V47.5
	C112.6,44.9,114.1,41.4,114.1,37.5z M111.2,37.6c0,6.3-5.1,11.4-11.4,11.4c-6,0-12.8-4.9-12.8-11.4h-1.5l1.5-0.1L84.4,2.9h22.9
	L111.2,37.6z M58.5,2.9h23l2.6,34.7c0,6.5-6.7,11.4-12.8,11.4c-6,0-12.8-4.9-12.8-11.4V2.9z M55.6,37.6c0,6.5-6.7,11.4-12.8,11.4
	c-6,0-12.7-4.9-12.8-11.4l2.6-34.7h23V37.6z M6.8,2.9h22.9l-2.6,34.6l1.5,0.1h-1.5c0,6.5-6.7,11.4-12.8,11.4
	c-6.3,0-11.4-5.1-11.4-11.3L6.8,2.9z M26,105.8V70.6h17.8v35.2H26z M46.7,105.8V67.6H23.1v38.2H6.9V49.9c2.2,1.3,4.7,2.1,7.4,2.1
	c6.1,0,11.7-3.6,14.2-8.5c2.5,4.9,8.1,8.5,14.2,8.5c6.1,0,11.7-3.6,14.2-8.5c2.5,4.9,8.1,8.5,14.2,8.5c6.1,0,11.7-3.6,14.2-8.5
	c2.5,4.9,8.1,8.5,14.2,8.5c2.7,0,5.2-0.8,7.4-2.1v55.9H46.7z"/>
<path class="st0" d="M59.9,92h39.3v-32H59.9V92z M62.8,63h33.5v26.1H62.8V63z"/>
</svg>
