<?xml version="1.0" encoding="utf-8"?>
<!-- Generator: Adobe Illustrator 21.1.0, SVG Export Plug-In . SVG Version: 6.00 Build 0)  -->
<svg version="1.1" id="Laag_1" xmlns="http://www.w3.org/2000/svg" xmlns:xlink="http://www.w3.org/1999/xlink" x="0px" y="0px"
	 viewBox="0 0 97.3 104" style="enable-background:new 0 0 97.3 104;" xml:space="preserve">
<style type="text/css">
	.st0{fill:#FF005B;}
</style>
<g>
	<path class="st0" d="M96.7,102.4C87.3,71.5,69.1,62.9,58,60.7C67.1,57,73.6,48,73.6,37.5c0-1.4-0.1-2.8-0.4-4.2l10-23.7L82.2,9
		c-0.8-0.4-19.5-9-33.6-9C34.5,0,15.8,8.7,15,9l-1.1,0.5l10,23.7c-0.2,1.4-0.4,2.8-0.4,4.2c0,10.5,6.5,19.5,15.7,23.2
		C28.1,62.9,10,71.5,0.5,102.4L0,104h97.3L96.7,102.4z M48.6,2.5C60.3,2.5,75.8,9,80,10.8l-8.8,20.7c-3.4-1.1-13.7-4.1-22.6-4.1
		c-9,0-19.3,3-22.6,4.1l-8.8-20.7C21.5,9,37,2.5,48.6,2.5z M26.1,37.5c0-1.1,0.1-2.3,0.3-3.4c2.8-0.9,13.4-4.1,22.2-4.1
		c8.8,0,19.4,3.2,22.2,4.1c0.2,1.1,0.3,2.3,0.3,3.4c0,11.9-9.3,21.6-20.9,22.4c-0.8,0-1.3,0-1.6,0.1c-0.2,0-0.8-0.1-1.6-0.1
		C35.4,59.1,26.1,49.4,26.1,37.5z M3.4,101.5c11.8-36.2,36-39.1,43.2-39.1c0.2,0,0.3,0,0.4,0c0.5,0,0.9,0.1,1.4,0.1l0.1,0l0.1,0
		c0.5,0,0.9,0,1.4-0.1c0.1,0,0.3,0,0.4,0c7.2,0,31.4,2.9,43.2,39.1H3.4z"/>
	<polygon class="st0" points="47.4,23.6 49.9,23.6 49.9,16.2 57.3,16.2 57.3,13.7 49.9,13.7 49.9,6.3 47.4,6.3 47.4,13.7 40,13.7 
		40,16.2 47.4,16.2 	"/>
</g>
</svg>
